<?xml version="1.0" standalone="no"?>
<!DOCTYPE svg PUBLIC "-//W3C//DTD SVG 20010904//EN"
 "http://www.w3.org/TR/2001/REC-SVG-20010904/DTD/svg10.dtd">
<svg version="1.0" xmlns="http://www.w3.org/2000/svg"
 width="16.000000pt" height="16.000000pt" viewBox="0 0 16.000000 16.000000"
 preserveAspectRatio="xMidYMid meet">
<metadata>
Created by potrace 1.11, written by Peter Selinger 2001-2013
</metadata>
<g transform="translate(0.000000,16.000000) scale(0.006400,-0.006400)"
fill="#000000" stroke="none">
<path d="M1144 2279 c-18 -65 -32 -82 -65 -77 -15 2 -23 11 -26 28 -6 44 -11
49 -39 44 -45 -8 -47 -12 -39 -98 4 -44 7 -85 7 -91 -1 -20 -8 -45 -15 -51
-14 -14 -7 -82 8 -88 8 -3 15 -12 15 -21 0 -55 330 -78 476 -34 51 16 96 95
72 126 -13 16 -17 113 -8 182 6 44 4 54 -12 65 -10 7 -28 12 -40 11 -18 -1
-24 -9 -28 -36 -4 -28 -10 -35 -32 -37 -30 -4 -30 -3 -63 89 l-17 46 -89 1
-89 0 -16 -59z"/>
<path d="M525 2199 c-51 -12 -53 -14 -60 -74 -4 -27 -11 -54 -16 -59 -8 -9
-12 -2 -25 42 -4 14 -40 16 -49 2 -3 -5 2 -38 11 -72 10 -35 18 -89 19 -120 1
-49 6 -62 29 -83 26 -24 32 -25 112 -21 118 7 227 29 300 62 29 13 38 29 49
89 0 6 -6 26 -16 45 -9 19 -20 66 -23 104 -3 38 -8 71 -10 73 -2 3 -23 7 -45
10 -43 6 -42 7 -45 -47 -1 -19 -8 -27 -30 -32 -41 -9 -52 -2 -81 48 -28 48
-40 51 -120 33z"/>
<path d="M1857 2159 c-20 -36 -32 -49 -43 -45 -9 3 -27 6 -40 6 -21 0 -24 4
-24 40 0 38 -1 40 -32 40 -18 0 -39 -4 -47 -9 -16 -10 -17 -16 -24 -100 -3
-31 -12 -69 -21 -86 -18 -34 -20 -61 -6 -70 6 -3 10 -15 10 -25 0 -32 66 -58
215 -83 41 -8 107 -13 145 -12 60 1 71 4 89 25 17 21 28 76 22 113 0 4 8 40
19 80 19 68 19 73 3 85 -15 11 -21 10 -35 -9 -10 -12 -18 -29 -18 -38 -1 -36
-27 19 -28 61 -2 50 -4 52 -64 67 -81 19 -90 16 -121 -40z"/>
<path d="M602 1646 c5 -17 11 -38 13 -48 25 -114 183 -635 207 -684 36 -75
117 -161 187 -200 l47 -27 0 -261 c-1 -144 1 -269 3 -278 3 -16 21 -18 202
-18 l199 0 0 278 0 277 43 23 c41 21 113 85 149 130 43 53 75 146 168 478 55
195 100 356 100 358 0 1 -94 3 -210 3 -115 0 -210 -1 -210 -4 0 -10 -152 -550
-162 -576 -22 -58 -87 -75 -133 -34 -20 17 -36 58 -75 197 -28 96 -52 184 -54
195 -3 11 -9 34 -15 50 -5 17 -19 62 -31 101 l-20 72 -209 -1 -209 -1 10 -30z"/>
</g>
</svg>
